<svg width="512" height="512" viewBox="0 0 512 512" fill="none" xmlns="http://www.w3.org/2000/svg">
  <rect width="512" height="512" rx="108" fill="#2563eb"/>
  <path d="M160 120h192c17.7 0 32 14.3 32 32v208c0 17.7-14.3 32-32 32H160c-17.7 0-32-14.3-32-32V152c0-17.7 14.3-32 32-32z" stroke="white" stroke-width="16" fill="none"/>
  <line x1="176" y1="184" x2="336" y2="184" stroke="white" stroke-width="12" stroke-linecap="round"/>
  <line x1="176" y1="224" x2="336" y2="224" stroke="white" stroke-width="12" stroke-linecap="round"/>
  <line x1="176" y1="264" x2="296" y2="264" stroke="white" stroke-width="12" stroke-linecap="round"/>
  <line x1="176" y1="304" x2="256" y2="304" stroke="white" stroke-width="12" stroke-linecap="round"/>
  <circle cx="360" cy="360" r="72" fill="#1d4ed8" stroke="white" stroke-width="12"/>
  <path d="M340 360l14 14 26-28" stroke="white" stroke-width="10" stroke-linecap="round" stroke-linejoin="round" fill="none"/>
</svg>
